# xmcd
#
# Track frame offsets:
#	150
#	13711
#	23428
#	38045
#	52160
#	64726
#	77019
#	94230
#	103457
#	112857
#	126436
#	138278
#	147810
#	161706
#	174694
#	188019
#	200042
#	211031
#	224337
#	234867
#	246269
#	258515
#	270018
#	280598
#	295381
#	306362
#	319464
#	335451
#
# Disc length: 4641
#
# Revision: 1
# Processed by: cddbd v1.5.1PL0 Copyright (c) Steve Scherf et al.
# Submitted via: NeoAudio 9.9.9
# Normalized: r0:DSETVAR1,TDELIM( - )
#
DISCID=9f121f1c
DTITLE=Various Artist - Classic Country 1970 - 1974
DYEAR=1900
DGENRE=Country
TTITLE0=Loretta Lynn - Coal Miner's Daughter
TTITLE1=Mel Tillis - I Ain't Never
TTITLE2=Olivia Newton-John - If you Love Me (Let Me Know)
TTITLE3=George Jones - The Grand Tour
TTITLE4=Donna Fargo - Funny Face
TTITLE5=Merle Haggard - If We Make It Through December
TTITLE6=Ray Price - For the Good Times
TTITLE7=Charley Pride - Kiss An Angel Good Mornin'
TTITLE8=Dottie West - Country Sunshine
TTITLE9=Conway Twitty - You've Never Been This Far Before
TTITLE10=Tammy Wynette - He Loves Me All the Way
TTITLE11=Tom T. Hall - I Love
TTITLE12=Dolly Parton - Coat of Many Colors
TTITLE13=The Statler Brothers - Do You Remember These
TTITLE14=Billy Swan - I Can Help
TTITLE15=Marie Osmond - Paper Roses
TTITLE16=Conway Twitty - Hello Darlin'
TTITLE17=George Jones and Tammy Wynette - We're Gonna Hold On
TTITLE18=Sonny James - Empty Arms
TTITLE19=Donna Fargo - The Happiest Girl in the Whole U.S.A.
TTITLE20=Charlie Rich - The Most Beautiful Girl
TTITLE21=Sammie Smith - Help Me Make It Through the Night
TTITLE22=Jerry Reed - When You're Hot, You're Hot
TTITLE23=Jeanne Pruett - Satin Sheets
TTITLE24=Loretta Lynn and Conway Twitty - Lead Me On
TTITLE25=Tanya Tucker - Delta Dawn
TTITLE26=Marty Robbins - My Womon, My Woman, My Wife
TTITLE27=Lynn Anderson - Rose Garden
EXTD=
EXTT0=
EXTT1=
EXTT2=
EXTT3=
EXTT4=
EXTT5=
EXTT6=
EXTT7=
EXTT8=
EXTT9=
EXTT10=
EXTT11=
EXTT12=
EXTT13=
EXTT14=
EXTT15=
EXTT16=
EXTT17=
EXTT18=
EXTT19=
EXTT20=
EXTT21=
EXTT22=
EXTT23=
EXTT24=
EXTT25=
EXTT26=
EXTT27=
PLAYORDER=
